<svg width="230" height="24" viewBox="0 0 230 24" fill="none" xmlns="http://www.w3.org/2000/svg">
<path d="M10.7812 20H6.52734L0.222656 3.125H4.96875L9.64453 16.707L13.875 3.125H16.7578L10.7812 20ZM23.4492 20H18.7969V3.125H23.4492V20ZM29.4375 20H27.2812V3.125H30.3047L40.5586 14.7148V3.125H42.7031V20H39.6797L29.4375 8.42188V20ZM62.5898 11.9258V12.1484C62.5742 12.8047 62.5039 13.4844 62.3789 14.1875C62.2617 14.8906 62.0938 15.5938 61.875 16.2969C61.6562 17 61.3945 17.6953 61.0898 18.3828C60.7852 19.0703 60.4414 19.7266 60.0586 20.3516C59.6836 20.9844 59.2773 21.5742 58.8398 22.1211C58.4023 22.6758 57.9414 23.1641 57.457 23.5859L55.7109 22.5781C55.9844 22.1172 56.2305 21.6133 56.4492 21.0664C56.6758 20.5273 56.8789 19.9609 57.0586 19.3672C57.2383 18.7734 57.3906 18.1641 57.5156 17.5391C57.6484 16.9141 57.7578 16.293 57.8438 15.6758C57.9297 15.0586 57.9922 14.4531 58.0312 13.8594C58.0781 13.2578 58.1016 12.6875 58.1016 12.1484C58.1016 11.7266 58.0977 11.25 58.0898 10.7188C58.0898 10.1797 58.0586 9.63281 57.9961 9.07812C57.9414 8.52344 57.8477 7.98438 57.7148 7.46094C57.582 6.92969 57.3828 6.45703 57.1172 6.04297C56.8594 5.62891 56.5234 5.29687 56.1094 5.04688C55.7031 4.79688 55.1953 4.67188 54.5859 4.67188C54.0469 4.67188 53.582 4.76562 53.1914 4.95312C52.8086 5.13281 52.4805 5.37891 52.207 5.69141C51.9414 5.99609 51.7266 6.35156 51.5625 6.75781C51.4062 7.16406 51.2812 7.59375 51.1875 8.04688C51.1016 8.49219 51.043 8.94531 51.0117 9.40625C50.9883 9.85938 50.9766 10.2891 50.9766 10.6953V13.9648H56.0273V15.8984H50.9766V20H46.3242V11.4219C46.3242 10.1953 46.5195 9.05469 46.9102 8C47.3008 6.94531 47.8516 6.03125 48.5625 5.25781C49.2812 4.47656 50.1406 3.86719 51.1406 3.42969C52.1484 2.98438 53.2695 2.76172 54.5039 2.76172C55.3398 2.76172 56.1211 2.88281 56.8477 3.125C57.582 3.35938 58.25 3.6875 58.8516 4.10938C59.4531 4.52344 59.9883 5.01953 60.457 5.59766C60.9336 6.16797 61.3281 6.79297 61.6406 7.47266C61.9609 8.15234 62.2031 8.87109 62.3672 9.62891C62.5312 10.3867 62.6055 11.1523 62.5898 11.9258ZM76.2305 7.41406L74.918 20H72.0469L74.918 3.125H79.1719L83.1211 16.0039L87.1172 3.125H91.3711L93.7617 20H89.0273L87.6328 7.74219L84.3398 20H80.0859L76.2305 7.41406ZM112.91 11.9258V12.1484C112.895 12.8047 112.824 13.4844 112.699 14.1875C112.582 14.8906 112.414 15.5938 112.195 16.2969C111.977 17 111.715 17.6953 111.41 18.3828C111.105 19.0703 110.762 19.7266 110.379 20.3516C110.004 20.9844 109.598 21.5742 109.16 22.1211C108.723 22.6758 108.262 23.1641 107.777 23.5859L106.031 22.5781C106.305 22.1172 106.551 21.6133 106.77 21.0664C106.996 20.5273 107.199 19.9609 107.379 19.3672C107.559 18.7734 107.711 18.1641 107.836 17.5391C107.969 16.9141 108.078 16.293 108.164 15.6758C108.25 15.0586 108.312 14.4531 108.352 13.8594C108.398 13.2578 108.422 12.6875 108.422 12.1484C108.422 11.7266 108.418 11.25 108.41 10.7188C108.41 10.1797 108.379 9.63281 108.316 9.07812C108.262 8.52344 108.168 7.98438 108.035 7.46094C107.902 6.92969 107.703 6.45703 107.438 6.04297C107.18 5.62891 106.844 5.29687 106.43 5.04688C106.023 4.79688 105.516 4.67188 104.906 4.67188C104.367 4.67188 103.902 4.76562 103.512 4.95312C103.129 5.13281 102.801 5.37891 102.527 5.69141C102.262 5.99609 102.047 6.35156 101.883 6.75781C101.727 7.16406 101.602 7.59375 101.508 8.04688C101.422 8.49219 101.363 8.94531 101.332 9.40625C101.309 9.85938 101.297 10.2891 101.297 10.6953V13.9648H106.348V15.8984H101.297V20H96.6445V11.4219C96.6445 10.1953 96.8398 9.05469 97.2305 8C97.6211 6.94531 98.1719 6.03125 98.8828 5.25781C99.6016 4.47656 100.461 3.86719 101.461 3.42969C102.469 2.98438 103.59 2.76172 104.824 2.76172C105.66 2.76172 106.441 2.88281 107.168 3.125C107.902 3.35938 108.57 3.6875 109.172 4.10938C109.773 4.52344 110.309 5.01953 110.777 5.59766C111.254 6.16797 111.648 6.79297 111.961 7.47266C112.281 8.15234 112.523 8.87109 112.688 9.62891C112.852 10.3867 112.926 11.1523 112.91 11.9258ZM120.598 20H115.945V3.125H124.242C125.023 3.125 125.777 3.21875 126.504 3.40625C127.23 3.58594 127.871 3.875 128.426 4.27344C128.988 4.66406 129.434 5.17188 129.762 5.79688C130.098 6.42187 130.266 7.17969 130.266 8.07031C130.266 8.76562 130.117 9.42188 129.82 10.0391C129.531 10.6484 129.141 11.1953 128.648 11.6797C128.164 12.1562 127.605 12.5547 126.973 12.875C126.34 13.1875 125.684 13.3945 125.004 13.4961C125.309 14.0117 125.625 14.5 125.953 14.9609C126.289 15.4219 126.625 15.8555 126.961 16.2617C127.305 16.6602 127.645 17.0312 127.98 17.375C128.316 17.7109 128.637 18.0195 128.941 18.3008C129.66 18.957 130.371 19.5234 131.074 20H125.273C124.805 19.5547 124.359 19.0195 123.938 18.3945C123.578 17.8633 123.215 17.207 122.848 16.4258C122.488 15.6367 122.211 14.7266 122.016 13.6953H120.598V20ZM125.543 8.07031C125.543 6.9375 125.266 6.10547 124.711 5.57422C124.164 5.04297 123.34 4.77734 122.238 4.77734H120.598V12.1016H122.238C122.824 12.1016 123.324 11.9922 123.738 11.7734C124.16 11.5469 124.504 11.25 124.77 10.8828C125.035 10.5078 125.23 10.0781 125.355 9.59375C125.48 9.10938 125.543 8.60156 125.543 8.07031ZM137.918 20H133.266V3.125H137.918V20ZM153.867 20H141.75V3.125H153.867V5.28125H146.402V10.4961H152.168V12.6406H146.402V17.8438H153.867V20ZM163.828 12.6289H155.953V10.4727H163.828V12.6289ZM179.32 20H167.203V3.125H171.855V17.8555H179.32V20ZM185.578 3.125C185.367 3.75781 185.184 4.41406 185.027 5.09375C184.871 5.76562 184.742 6.44141 184.641 7.12109C184.539 7.79297 184.461 8.45703 184.406 9.11328C184.359 9.76953 184.336 10.3906 184.336 10.9766C184.336 11.4062 184.336 11.8906 184.336 12.4297C184.344 12.9609 184.375 13.5039 184.43 14.0586C184.492 14.6133 184.59 15.1562 184.723 15.6875C184.855 16.2109 185.051 16.6797 185.309 17.0938C185.574 17.5078 185.91 17.8398 186.316 18.0898C186.73 18.3398 187.242 18.4648 187.852 18.4648C188.391 18.4648 188.852 18.375 189.234 18.1953C189.625 18.0078 189.953 17.7578 190.219 17.4453C190.492 17.1328 190.707 16.7734 190.863 16.3672C191.027 15.9609 191.152 15.5352 191.238 15.0898C191.332 14.6445 191.391 14.1953 191.414 13.7422C191.445 13.2812 191.461 12.8438 191.461 12.4297V3.125H196.113V11.7031C196.113 12.9297 195.918 14.0703 195.527 15.125C195.137 16.1797 194.586 17.0977 193.875 17.8789C193.164 18.6523 192.305 19.2617 191.297 19.707C190.289 20.1445 189.172 20.3633 187.945 20.3633C187.102 20.3633 186.316 20.2422 185.59 20C184.863 19.7656 184.195 19.4414 183.586 19.0273C182.984 18.6055 182.445 18.1094 181.969 17.5391C181.5 16.9609 181.105 16.332 180.785 15.6523C180.473 14.9727 180.234 14.2578 180.07 13.5078C179.906 12.75 179.832 11.9844 179.848 11.2109V10.9766C179.855 10.3516 179.918 9.70703 180.035 9.04297C180.152 8.37109 180.309 7.69922 180.504 7.02734C180.707 6.35547 180.949 5.69141 181.23 5.03516C181.512 4.37109 181.824 3.73438 182.168 3.125H185.578ZM215.062 7.30859L213.059 8.15234C212.902 7.64453 212.691 7.17969 212.426 6.75781C212.168 6.33594 211.855 5.97656 211.488 5.67969C211.129 5.375 210.719 5.14062 210.258 4.97656C209.797 4.80469 209.293 4.71875 208.746 4.71875C208.16 4.71875 207.621 4.81641 207.129 5.01172C206.645 5.19922 206.207 5.46094 205.816 5.79688C205.434 6.13281 205.098 6.52344 204.809 6.96875C204.52 7.41406 204.277 7.89063 204.082 8.39844C203.887 8.89844 203.742 9.41797 203.648 9.95703C203.555 10.4961 203.508 11.0234 203.508 11.5391C203.508 12.3594 203.602 13.1758 203.789 13.9883C203.984 14.8008 204.289 15.5312 204.703 16.1797C205.125 16.8281 205.668 17.3555 206.332 17.7617C206.996 18.1602 207.801 18.3594 208.746 18.3594C209.246 18.3594 209.719 18.2773 210.164 18.1133C210.609 17.9414 211.012 17.7109 211.371 17.4219C211.738 17.125 212.059 16.7773 212.332 16.3789C212.605 15.9805 212.824 15.5508 212.988 15.0898L215.016 15.8984C214.719 16.6406 214.312 17.293 213.797 17.8555C213.281 18.4102 212.691 18.8711 212.027 19.2383C211.371 19.6055 210.664 19.8789 209.906 20.0586C209.156 20.2461 208.398 20.3398 207.633 20.3398C206.805 20.3398 206.008 20.2383 205.242 20.0352C204.484 19.832 203.777 19.543 203.121 19.168C202.465 18.793 201.867 18.3398 201.328 17.8086C200.797 17.2773 200.34 16.6875 199.957 16.0391C199.582 15.3906 199.289 14.6875 199.078 13.9297C198.875 13.1641 198.773 12.3672 198.773 11.5391C198.773 10.7109 198.875 9.91797 199.078 9.16016C199.289 8.39453 199.582 7.6875 199.957 7.03906C200.34 6.38281 200.797 5.78906 201.328 5.25781C201.867 4.72656 202.465 4.27344 203.121 3.89844C203.777 3.52344 204.484 3.23437 205.242 3.03125C206.008 2.82813 206.805 2.72656 207.633 2.72656C208.43 2.72656 209.207 2.82031 209.965 3.00781C210.73 3.19531 211.441 3.48047 212.098 3.86328C212.754 4.23828 213.336 4.71484 213.844 5.29297C214.359 5.86328 214.766 6.53516 215.062 7.30859ZM229.898 20H217.781V3.125H229.898V5.28125H222.434V10.4961H228.199V12.6406H222.434V17.8438H229.898V20Z" fill="white"/>
<path d="M69.082 22.4023H65.6016V0.804688H69.082V22.4023Z" fill="white"/>
<path d="M69.082 22.4023H65.6016V0.804688H69.082V22.4023Z" fill="#A5668B"/>
</svg>
